<svg width="81" height="73" viewBox="0 0 81 73" fill="none" xmlns="http://www.w3.org/2000/svg">
<path d="M0.666443 38.4207C0.666443 35.8463 1.20079 33.2633 2.54643 31.0756C3.84269 28.9682 5.95338 26.001 9.23789 22.4915C12.0481 19.4889 14.267 17.4948 15.8938 16.1926C17.991 14.5139 20.6113 13.8361 23.2866 13.7287C27.5829 13.5562 32.6971 13.4471 38.7618 13.4471C55.1148 13.4471 64.5578 14.2399 69.686 14.9321C73.1064 15.3938 75.6228 17.8911 76.0409 21.3458C76.4622 24.8266 76.8571 30.2647 76.8571 38.4207C76.8571 46.5768 76.4622 52.0148 76.0409 55.4957C75.6228 58.9504 73.1064 61.4477 69.686 61.9094C64.5577 62.6016 55.1148 63.3943 38.7618 63.3943C22.4087 63.3943 12.9658 62.6016 7.83749 61.9094C4.41716 61.4477 1.90072 58.9504 1.4826 55.4957C1.06131 52.0148 0.666443 46.5768 0.666443 38.4207Z" fill="#62E4D3"/>
<path d="M33.0486 62.4344C33.0486 68.2697 28.3582 73.0002 22.5723 73.0002C16.7865 73.0002 12.0961 68.2697 12.0961 62.4344C12.0961 56.5991 16.7865 51.8687 22.5723 51.8687C28.3582 51.8687 33.0486 56.5991 33.0486 62.4344Z" fill="#0D9676"/>
<path d="M67.3337 62.4344C67.3337 68.2697 62.6434 73.0002 56.8575 73.0002C51.0716 73.0002 46.3813 68.2697 46.3813 62.4344C46.3813 56.5991 51.0716 51.8687 56.8575 51.8687C62.6434 51.8687 67.3337 56.5991 67.3337 62.4344Z" fill="#0D9676"/>
<path d="M31.7254 6.70546C31.9839 3.89699 33.8292 1.7044 36.5857 1.22859C40.0646 0.628101 46.0571 0 55.905 0C65.7528 0 71.7453 0.628101 75.2242 1.22859C77.9808 1.7044 79.8261 3.89699 80.0846 6.70546C80.3769 9.88202 80.6669 15.0499 80.6669 23.0525C80.6669 31.0552 80.3769 36.2231 80.0846 39.3996C79.8261 42.2081 77.9808 44.4007 75.2242 44.8765C71.7453 45.477 65.7528 46.1051 55.905 46.1051C46.0571 46.1051 40.0646 45.477 36.5857 44.8765C33.8292 44.4007 31.9839 42.2081 31.7254 39.3996C31.433 36.2231 31.143 31.0552 31.143 23.0525C31.143 15.0499 31.433 9.88202 31.7254 6.70546Z" fill="#0D9676"/>
<path d="M10.47 33.5255C10.384 32.8792 10.4455 32.172 10.728 31.5854C11.2604 30.4799 12.461 28.4473 14.9527 25.9342C17.2839 23.5831 19.1728 22.3973 20.2878 21.8311C20.9949 21.472 21.929 21.4267 22.7024 21.5969C24.3415 21.9574 25.2477 23.358 25.3372 25.0476C25.3896 26.0361 25.4288 27.3528 25.4288 29.0795C25.4288 30.3558 25.4074 31.4082 25.3751 32.2695C25.2915 34.4946 23.8663 36.1925 21.6655 36.3696C20.7026 36.4471 19.4903 36.4999 17.9746 36.4999C15.7662 36.4999 14.2019 36.3877 13.1147 36.2506C11.6647 36.0677 10.6643 34.9862 10.47 33.5255Z" fill="#0D9676"/>
</svg>
