<svg width="81" height="80" viewBox="0 0 81 80" fill="none" xmlns="http://www.w3.org/2000/svg">
<path d="M1.45734 9.37004C1.81202 5.93555 4.0638 3.21696 7.44088 2.49803C12.7714 1.36324 22.8197 0 40.3334 0C57.847 0 67.8954 1.36324 73.2259 2.49803C76.603 3.21696 78.8547 5.93555 79.2094 9.37004C79.7353 14.4624 80.3334 23.8122 80.3334 40C80.3334 56.1878 79.7353 65.5376 79.2094 70.63C78.8547 74.0645 76.603 76.783 73.2259 77.502C67.8953 78.6368 57.847 80 40.3334 80C22.8197 80 12.7714 78.6368 7.44087 77.502C4.06379 76.783 1.81202 74.0645 1.45734 70.63C0.931447 65.5376 0.333374 56.1878 0.333374 40C0.333374 23.8122 0.931448 14.4624 1.45734 9.37004Z" fill="#62E4D3"/>
<path fill-rule="evenodd" clip-rule="evenodd" d="M79.9454 20H0.721069C0.933101 15.2731 1.20355 11.8263 1.45722 9.37004C1.8119 5.93555 4.06367 3.21696 7.44075 2.49803C12.7713 1.36324 22.8196 0 40.3333 0C57.8469 0 67.8952 1.36324 73.2258 2.49803C76.6028 3.21696 78.8546 5.93555 79.2093 9.37004C79.463 11.8263 79.7334 15.2731 79.9454 20Z" fill="#0D9676"/>
<path d="M14.3334 36.0005C14.3334 33.7913 16.1242 32.0005 18.3334 32.0005H22.3334C24.5425 32.0005 26.3334 33.7913 26.3334 36.0005V40.0005C26.3334 42.2096 24.5425 44.0005 22.3334 44.0005H18.3334C16.1242 44.0005 14.3334 42.2096 14.3334 40.0005V36.0005Z" fill="#0D9676"/>
<path d="M14.3334 56.0005C14.3334 53.7913 16.1242 52.0005 18.3334 52.0005H22.3334C24.5425 52.0005 26.3334 53.7913 26.3334 56.0005V60.0005C26.3334 62.2096 24.5425 64.0005 22.3334 64.0005H18.3334C16.1242 64.0005 14.3334 62.2096 14.3334 60.0005V56.0005Z" fill="#0D9676"/>
<path d="M34.3334 36.0005C34.3334 33.7913 36.1242 32.0005 38.3334 32.0005H42.3334C44.5425 32.0005 46.3334 33.7913 46.3334 36.0005V40.0005C46.3334 42.2096 44.5425 44.0005 42.3334 44.0005H38.3334C36.1242 44.0005 34.3334 42.2096 34.3334 40.0005V36.0005Z" fill="#0D9676"/>
<path d="M34.3334 56.0005C34.3334 53.7913 36.1242 52.0005 38.3334 52.0005H42.3334C44.5425 52.0005 46.3334 53.7913 46.3334 56.0005V60.0005C46.3334 62.2096 44.5425 64.0005 42.3334 64.0005H38.3334C36.1242 64.0005 34.3334 62.2096 34.3334 60.0005V56.0005Z" fill="#0D9676"/>
<path d="M54.3334 36.0005C54.3334 33.7913 56.1242 32.0005 58.3334 32.0005H62.3334C64.5425 32.0005 66.3334 33.7913 66.3334 36.0005V40.0005C66.3334 42.2096 64.5425 44.0005 62.3334 44.0005H58.3334C56.1242 44.0005 54.3334 42.2096 54.3334 40.0005V36.0005Z" fill="#0D9676"/>
</svg>
